<svg width="24" height="28" viewBox="0 0 24 28" fill="none" xmlns="http://www.w3.org/2000/svg">
<g clip-path="url(#clip0_4415_9971)">
<g clip-path="url(#clip1_4415_9971)">
<path d="M15 3.5L17.5453 9.95469L24 12.5L17.5453 15.0453L15 21.5L12.4547 15.0453L6 12.5L12.4547 9.95469L15 3.5ZM4.40625 18.4062L0 20L4.40625 21.5938L6 26L7.59375 21.5938L12 20L7.59375 18.4062L6 14L4.40625 18.4062ZM3.30937 5.30937L0 6.5L3.30469 7.69531L4.5 11L5.69531 7.69531L9 6.5L5.69531 5.30469L4.5 2L3.30469 5.30469L3.30937 5.30937Z" fill="#EDE3C9"/>
</g>
</g>
<defs>
<clipPath id="clip0_4415_9971">
<rect width="24" height="24" fill="white" transform="translate(0 2)"/>
</clipPath>
<clipPath id="clip1_4415_9971">
<rect width="24" height="24" fill="white" transform="translate(0 2)"/>
</clipPath>
</defs>
</svg>
