<svg width="120" height="36" viewBox="0 0 120 36" fill="none" xmlns="http://www.w3.org/2000/svg">
<g clip-path="url(#clip0_4314_913)">
<path d="M15 9.5L17.5453 15.9547L24 18.5L17.5453 21.0453L15 27.5L12.4547 21.0453L6 18.5L12.4547 15.9547L15 9.5ZM4.40625 24.4062L0 26L4.40625 27.5938L6 32L7.59375 27.5938L12 26L7.59375 24.4062L6 20L4.40625 24.4062ZM3.30937 11.3094L0 12.5L3.30469 13.6953L4.5 17L5.69531 13.6953L9 12.5L5.69531 11.3047L4.5 8L3.30469 11.3047L3.30937 11.3094Z" fill="#CCB066"/>
</g>
<path d="M28.1937 27L33.5937 11.232H35.5617L40.9377 27H39.0657L36.2097 18.072C35.9217 17.176 35.6417 16.296 35.3697 15.432C35.1137 14.552 34.8497 13.648 34.5777 12.72H34.4817C34.2417 13.648 33.9857 14.552 33.7137 15.432C33.4577 16.296 33.1777 17.176 32.8737 18.072L29.9937 27H28.1937ZM30.9297 22.032V20.616H38.1537V22.032H30.9297ZM43.2432 27V11.232H45.0192V27H43.2432ZM54.2119 27V11.232H55.9879V27H54.2119ZM60.208 27V15.36H61.648L61.792 17.088H61.864C62.424 16.512 63.016 16.032 63.64 15.648C64.28 15.264 64.992 15.072 65.776 15.072C67.008 15.072 67.904 15.456 68.464 16.224C69.04 16.992 69.328 18.12 69.328 19.608V27H67.576V19.824C67.576 18.704 67.392 17.888 67.024 17.376C66.672 16.864 66.088 16.608 65.272 16.608C64.664 16.608 64.112 16.768 63.616 17.088C63.12 17.392 62.56 17.856 61.936 18.48V27H60.208ZM76.2152 27.288C75.3832 27.288 74.5912 27.136 73.8392 26.832C73.0872 26.512 72.4392 26.128 71.8952 25.68L72.7832 24.504C73.2952 24.904 73.8232 25.24 74.3672 25.512C74.9112 25.784 75.5512 25.92 76.2872 25.92C77.0872 25.92 77.6872 25.728 78.0872 25.344C78.4872 24.96 78.6872 24.504 78.6872 23.976C78.6872 23.56 78.5512 23.216 78.2792 22.944C78.0072 22.656 77.6632 22.416 77.2472 22.224C76.8312 22.016 76.4072 21.832 75.9752 21.672C75.4312 21.48 74.8872 21.248 74.3432 20.976C73.7992 20.704 73.3432 20.36 72.9752 19.944C72.6232 19.528 72.4472 18.992 72.4472 18.336C72.4472 17.424 72.7912 16.656 73.4792 16.032C74.1832 15.392 75.1592 15.072 76.4072 15.072C77.1112 15.072 77.7672 15.2 78.3752 15.456C78.9832 15.712 79.5032 16.016 79.9352 16.368L79.0952 17.496C78.6952 17.208 78.2792 16.968 77.8472 16.776C77.4312 16.568 76.9512 16.464 76.4072 16.464C75.6392 16.464 75.0712 16.648 74.7032 17.016C74.3352 17.368 74.1512 17.776 74.1512 18.24C74.1512 18.624 74.2712 18.944 74.5112 19.2C74.7672 19.44 75.0952 19.648 75.4952 19.824C75.8952 20 76.3192 20.176 76.7672 20.352C77.3432 20.56 77.9032 20.8 78.4472 21.072C79.0072 21.328 79.4712 21.672 79.8392 22.104C80.2072 22.536 80.3912 23.128 80.3912 23.88C80.3912 24.488 80.2312 25.056 79.9112 25.584C79.5912 26.096 79.1192 26.512 78.4952 26.832C77.8712 27.136 77.1112 27.288 76.2152 27.288ZM83.2236 27V15.36H84.9516V27H83.2236ZM84.1116 12.864C83.7756 12.864 83.4876 12.752 83.2476 12.528C83.0236 12.304 82.9116 12.008 82.9116 11.64C82.9116 11.288 83.0236 11.008 83.2476 10.8C83.4876 10.576 83.7756 10.464 84.1116 10.464C84.4636 10.464 84.7516 10.576 84.9756 10.8C85.1996 11.008 85.3116 11.288 85.3116 11.64C85.3116 12.008 85.1996 12.304 84.9756 12.528C84.7516 12.752 84.4636 12.864 84.1116 12.864ZM92.9241 32.424C91.9641 32.424 91.1241 32.296 90.4041 32.04C89.6841 31.784 89.1241 31.424 88.7241 30.96C88.3241 30.496 88.1241 29.936 88.1241 29.28C88.1241 28.768 88.2761 28.28 88.5801 27.816C88.8841 27.352 89.3001 26.944 89.8281 26.592V26.496C89.5401 26.304 89.2921 26.056 89.0841 25.752C88.8921 25.432 88.7961 25.048 88.7961 24.6C88.7961 24.104 88.9321 23.672 89.2041 23.304C89.4921 22.936 89.7801 22.648 90.0681 22.44V22.344C89.7001 22.04 89.3561 21.616 89.0361 21.072C88.7321 20.528 88.5801 19.912 88.5801 19.224C88.5801 18.376 88.7721 17.648 89.1561 17.04C89.5561 16.416 90.0761 15.936 90.7161 15.6C91.3721 15.248 92.0921 15.072 92.8761 15.072C93.1961 15.072 93.4921 15.104 93.7641 15.168C94.0521 15.216 94.2921 15.28 94.4841 15.36H98.5161V16.728H96.0441C96.3481 17.016 96.5961 17.376 96.7881 17.808C96.9801 18.24 97.0761 18.72 97.0761 19.248C97.0761 20.08 96.8841 20.8 96.5001 21.408C96.1321 22.016 95.6281 22.488 94.9881 22.824C94.3641 23.144 93.6601 23.304 92.8761 23.304C92.5881 23.304 92.2841 23.272 91.9641 23.208C91.6601 23.128 91.3721 23.024 91.1001 22.896C90.8761 23.072 90.6841 23.272 90.5241 23.496C90.3801 23.72 90.3081 24 90.3081 24.336C90.3081 24.72 90.4521 25.04 90.7401 25.296C91.0441 25.536 91.5881 25.656 92.3721 25.656H94.7001C96.0441 25.656 97.0441 25.88 97.7001 26.328C98.3721 26.76 98.7081 27.456 98.7081 28.416C98.7081 29.12 98.4681 29.776 97.9881 30.384C97.5241 30.992 96.8601 31.48 95.9961 31.848C95.1321 32.232 94.1081 32.424 92.9241 32.424ZM93.1641 31.176C93.9321 31.176 94.5961 31.056 95.1561 30.816C95.7321 30.576 96.1801 30.264 96.5001 29.88C96.8201 29.496 96.9801 29.088 96.9801 28.656C96.9801 28.096 96.7721 27.704 96.3561 27.48C95.9561 27.256 95.3561 27.144 94.5561 27.144H92.4201C92.2441 27.144 92.0201 27.128 91.7481 27.096C91.4921 27.064 91.2201 27.016 90.9321 26.952C90.4841 27.272 90.1561 27.608 89.9481 27.96C89.7561 28.328 89.6601 28.688 89.6601 29.04C89.6601 29.696 89.9721 30.216 90.5961 30.6C91.2201 30.984 92.0761 31.176 93.1641 31.176ZM92.8761 22.104C93.3401 22.104 93.7641 21.984 94.1481 21.744C94.5481 21.504 94.8681 21.168 95.1081 20.736C95.3481 20.304 95.4681 19.8 95.4681 19.224C95.4681 18.632 95.3481 18.128 95.1081 17.712C94.8841 17.28 94.5721 16.952 94.1721 16.728C93.7881 16.488 93.3561 16.368 92.8761 16.368C92.1561 16.368 91.5401 16.624 91.0281 17.136C90.5161 17.632 90.2601 18.328 90.2601 19.224C90.2601 19.8 90.3801 20.304 90.6201 20.736C90.8601 21.168 91.1801 21.504 91.5801 21.744C91.9801 21.984 92.4121 22.104 92.8761 22.104ZM101.036 27V9.864H102.764V14.616L102.716 17.064C103.276 16.504 103.868 16.032 104.492 15.648C105.116 15.264 105.82 15.072 106.604 15.072C107.836 15.072 108.732 15.456 109.292 16.224C109.868 16.992 110.156 18.12 110.156 19.608V27H108.404V19.824C108.404 18.704 108.22 17.888 107.852 17.376C107.5 16.864 106.916 16.608 106.1 16.608C105.492 16.608 104.94 16.768 104.444 17.088C103.948 17.392 103.388 17.856 102.764 18.48V27H101.036ZM117.525 27.288C116.325 27.288 115.485 26.936 115.005 26.232C114.541 25.528 114.309 24.616 114.309 23.496V16.8H112.557V15.48L114.381 15.36L114.597 12.072H116.061V15.36H119.253V16.8H116.061V23.544C116.061 24.264 116.189 24.832 116.445 25.248C116.717 25.648 117.205 25.848 117.909 25.848C118.117 25.848 118.341 25.816 118.581 25.752C118.837 25.688 119.061 25.616 119.253 25.536L119.613 26.856C119.293 26.968 118.949 27.064 118.581 27.144C118.213 27.24 117.861 27.288 117.525 27.288Z" fill="#EDE3C9"/>
<defs>
<clipPath id="clip0_4314_913">
<rect width="24" height="24" fill="white" transform="translate(0 8)"/>
</clipPath>
</defs>
</svg>
